<svg xmlns="http://www.w3.org/2000/svg" xmlns:lucid="lucid" width="56" height="54.69"><g transform="translate(-779.6643287622747 -412.9741918372504)" lucid:page-tab-id="alGq~_oyX7.S"><path d="M835.66 440.32c0 15.1-12.54 27.34-28 27.34-15.45 0-28-12.25-28-27.34 0-15.1 12.55-27.35 28-27.35 15.46 0 28 12.25 28 27.35z" stroke="#000" stroke-opacity="0" fill="url(#a)"/><path d="M832.2 440.33c0 13.15-10.93 23.8-24.4 23.8-13.45 0-24.38-10.65-24.38-23.8s10.93-23.82 24.4-23.82c13.45 0 24.38 10.68 24.38 23.83z" stroke="#000" stroke-opacity="0" fill="#fff"/><path d="M819.1 428.28l2.95-2.9.95.94-2.96 2.9-.95-.94z" stroke="#000" stroke-opacity="0" stroke-width=".71" fill="#7a7a7a"/><path d="M824.3 439.66h4.18v1.32h-4.18v-1.32z" stroke="#000" stroke-opacity="0" fill="#7a7a7a"/><path d="M818.86 452.13l.96-.93 2.96 2.9-.96.92-2.96-2.9z" stroke="#000" stroke-opacity="0" stroke-width=".71" fill="#7a7a7a"/><path d="M807.1 456.4h1.35v4.08h-1.35v-4.08z" stroke="#000" stroke-opacity="0" fill="#7a7a7a"/><path d="M792.43 426.2l.96-.92 2.95 2.9-.96.92-2.97-2.9zM792.6 454.14l2.96-2.88.96.93-2.97 2.88-.95-.94z" stroke="#000" stroke-opacity="0" stroke-width=".71" fill="#7a7a7a"/><path d="M786.83 439.66h4.2v1.32h-4.2v-1.32zM807.8 420.2h.34c1.14 0 1.7.56 1.7 1.67v17.64c0 1.13-.56 1.7-1.7 1.7h-.33c-1.13 0-1.7-.57-1.7-1.7v-17.63c0-1.1.57-1.68 1.7-1.68z" stroke="#000" stroke-opacity="0" fill="#7a7a7a"/><path d="M817.82 449.94l-.25.24c-.8.77-1.6.77-2.4 0l-7.07-6.9c-.8-.8-.8-1.58 0-2.36l.24-.23c.8-.8 1.6-.8 2.4 0l7.08 6.88c.8.8.8 1.58 0 2.36z" stroke="#000" stroke-opacity="0" stroke-width=".71" fill="#7a7a7a"/><path d="M811.75 440.3c0 2.12-1.77 3.85-3.95 3.85-2.17 0-3.94-1.73-3.94-3.86 0-2.14 1.76-3.87 3.94-3.87 2.18 0 3.95 1.73 3.95 3.86z" stroke="#000" stroke-opacity="0" fill="url(#b)"/><defs><radialGradient gradientUnits="userSpaceOnUse" id="a" fx="807.81" fy="440.04" cx="807.81" cy="440.04" r="27.87"><stop offset="18%" stop-color="#5ea0ef"/><stop offset="56%" stop-color="#5c9fee"/><stop offset="69%" stop-color="#559ced"/><stop offset="78%" stop-color="#4a97e9"/><stop offset="86%" stop-color="#3990e4"/><stop offset="93%" stop-color="#2387de"/><stop offset="99%" stop-color="#087bd6"/><stop offset="100%" stop-color="#0078d4"/></radialGradient><radialGradient gradientUnits="userSpaceOnUse" id="b" fx="808.14" fy="439.63" cx="808.14" cy="439.63" r="27.64"><stop offset="0%" stop-color="#7f7f7f"/><stop offset="100%" stop-color="#5e5e5e"/></radialGradient></defs></g></svg>