<svg xmlns="http://www.w3.org/2000/svg" xmlns:lucid="lucid" width="56.51" height="54.69"><g transform="translate(-790.8152845058095 -352.66800261201143)" lucid:page-tab-id="alGq~_oyX7.S"><path d="M818.67 391.77c10.17-7.05 10.5-11.17 10.57-12.47.06-1.8-.2-6.5-5.1-6.87-2.47-.2-4.66 1.18-5.47 3.43-.8-2.25-3-3.62-5.45-3.43-4.9.37-5.18 5.07-5.1 6.87.03 1.3.4 5.42 10.55 12.47" stroke="#000" stroke-opacity="0" fill="url(#a)"/><path d="M829.24 379.32c.06-1.8-.2-6.52-5.1-6.9-2.47-.18-4.66 1.2-5.47 3.45-.8-2.26-3-3.63-5.45-3.44-4.9.37-5.18 5.08-5.1 6.9.03 1.27.28 5.32 10.47 12.38" stroke="#000" stroke-opacity="0" fill-opacity="0"/><path d="M831.34 368.15c-3.24-3.15-6.23-5.56-10-8.1-.76.44-1.5.9-2.27 1.38 4 2.6 7.14 5.1 10.52 8.4 3.4 3.28 6 6.33 8.65 10.18.5-.75 1-1.5 1.45-2.24-2.63-3.62-5.12-6.5-8.36-9.6zM808.55 390.2c-3.4-3.28-6-6.32-8.66-10.2-.5.77-1 1.5-1.46 2.27 2.62 3.63 5.12 6.5 8.36 9.62 3.24 3.12 6.2 5.54 9.94 8.07.78-.44 1.54-.92 2.33-1.42-4-2.57-7.14-5.06-10.52-8.36zM841.22 380c-.48.75-1 1.5-1.52 2.25 5.33 8.73 6.86 16.88 3 20.62-3.88 3.72-12.3 2.27-21.3-2.93-.78.52-1.54 1.02-2.33 1.48 5.4 3.6 10.85 5.47 17.38 5.9 3.05.17 5.73-.76 7.96-2.78 5-4.8 3.38-14.4-3.18-24.53zM798.48 377.77c-5.37-8.72-6.9-16.87-3.02-20.62 1.77-1.53 3.84-2.24 6.2-2.08 2.8.06 5.15.52 7.72 1.5 2.72 1 4.95 2.03 7.44 3.48.76-.5 1.5-.98 2.25-1.45-2.93-1.8-5.6-3.1-8.84-4.26-7.26-2.57-13.1-2.16-16.53 1.12-4.9 4.78-3.33 14.4 3.22 24.55.5-.73 1.02-1.5 1.56-2.23z" stroke="#000" stroke-opacity="0" fill="#b3b3b3"/><path d="M801.66 407.36c-3.05.16-5.7-.82-7.96-2.85-6.84-6.6-1.08-22.63 13.1-36.35 6.28-6.3 12.72-10.56 21.14-13.8 7.23-2.56 13.1-2.17 16.5 1.1 6.84 6.68 1.13 22.65-13.1 36.43-10.18 9.8-21.48 15.48-29.68 15.48zm34.8-52.3c-2.75.07-5.13.56-7.73 1.5-7.97 3.16-14.18 7.2-20.17 13.28-12.83 12.36-18.82 27.5-13.1 33.03 5.7 5.52 21.35-.33 34.12-12.7 12.83-12.4 18.82-27.5 13.1-33.02-1.74-1.53-3.83-2.24-6.2-2.07z" stroke="#000" stroke-opacity="0" fill="#5ea0ef"/><path d="M798.47 377.77l2.3 3.45-1.85 1.66-2.8-4.16 2.35-.95zM839.7 382.22l-2.44-3.64 2.02-1.52 2.56 3.88-2.14 1.28z" stroke="#000" stroke-opacity="0" fill="#b3b3b3"/><path d="M839.68 382.23c-2.32 3.24-5.1 6.48-8.35 9.62-3.25 3.1-6.65 5.84-9.95 8.08 9.02 5.2 17.42 6.64 21.3 2.9 3.85-3.74 2.36-11.87-3-20.6zm-37.98-27.18c-2.37-.15-4.5.55-6.24 2.1-3.87 3.73-2.37 11.86 3 20.6 2.3-3.25 5.1-6.5 8.34-9.64 3.2-3.18 6.18-5.57 10-8.07-2.48-1.44-4.7-2.5-7.42-3.44-2.58-1-4.9-1.45-7.68-1.55z" stroke="#000" stroke-opacity="0" fill-opacity="0"/><defs><linearGradient gradientUnits="userSpaceOnUse" id="a" x1="819.07" y1="407.36" x2="819.07" y2="352.67"><stop offset="0%" stop-color="#1988d9"/><stop offset="21.8%" stop-color="#218ddc"/><stop offset="55.9%" stop-color="#379ce5"/><stop offset="90%" stop-color="#54aef0"/></linearGradient></defs></g></svg>