<svg width="1309.9" height="1563.38" xmlns="http://www.w3.org/2000/svg" xmlns:xlink="http://www.w3.org/1999/xlink">
    <g>
        <title>Layer 1</title>
        <g id="svg_1">
            <path id="svg_2" fill="#eee" stroke-width="2" stroke="#000"
                d="m662.72305,36.32566l0,335.1l-264.7,0c0,-74.03 -79,-134.04 -176.45,-134.04l-88.24,0c-73.1,0 -132.34,-45.02 -132.34,-100.54s59.26,-100.52 132.35,-100.52l529.38,0z" />
            <g id="svg_3" fill="#999" stroke="#000">
                <path id="svg_4" stroke-width="2" d="m1052.18305,1201.87566l-206.18,0l0,-60l206.16,0l0.02,60z" />
                <path id="svg_5" d="m1041.86305,1141.87566l-82.46,-10m-103.08,10l82.46,-10" />
            </g>
            <path id="svg_6" fill-opacity="0" fill="#fff"
                d="m833.50305,858.09566l0,-110.43l12.5,0l0,110.43l-12.5,0zm284.43,-123l91.33,0l0,12.5l-91.33,0l0,-12.5z" />
            <g id="svg_7" fill="#999" stroke="#000">
                <path id="svg_8" stroke-width="2" d="m848.75305,652.99566l0,-200l60,0l0,200l-60,0z" />
                <path id="svg_9" d="m911.25305,647.99566l0,-90m2.5,90l0,-90m-2.5,-10l0,-90m2.5,90l0,-90" />
            </g>
            <path id="svg_10" fill="#eee" stroke-width="2" stroke="#000"
                d="m386.58305,827.17566l306.5,0l0,69.98l-127.45,0c-49.44,0 -89.52,31.33 -89.52,69.98l0,66.2l-89.53,0l0,-206.16z" />
            <path id="svg_11" fill="#fff"
                d="m833.51305,1203.12566l6.25,6.24l6.25,-6.25l0,-332.86l-6.25,-6.25l-6.25,0l0,339.12zm0,-339.1l6.25,0l6.24,-6.26l0,0.33l-12.5,0l0.01,5.93zm0,-116.36l12.5,0l0,-0.07l-6.26,-6.25l-6.25,0l0.01,6.32zm0,-6.32l6.24,0l6.25,-6.25l0,-300.57l-6.25,-6.25l-6.25,6.24l0.01,306.83z" />
            <path id="svg_12" fill="none" stroke-width="2" stroke="#000"
                d="m833.51305,1203.12566l0,-339.1m12.5,6.24l0,332.86m-12.5,-339.1l0,-5.93l12.5,0l0,-0.33m-12.5,-110.11l0,-6.32m12.5,6.25l0,0.07l-12.5,0m0,-6.32l0,-306.81m12.5,0l0,300.57m-12.5,6.25" />
            <use id="svg_13" x="0" y="0" transform="matrix(6.66019e-7 1 -1 6.66019e-7 805.108 793.845)"
                xlink:href="#a" />
            <path id="svg_14" fill="#eee" stroke-width="2" stroke="#000"
                d="m831.43305,1195.29566l-337,0l0,-60.63l215,0c33.7,0 61,-27.14 61,-60.63l0,-43.03l61,0l0,164.29z" />
            <path id="svg_15" fill="#fff"
                d="m1296.18305,1203.09566l6.24,6.25l6.25,6.25l0,-148.92l-6.26,0l-6.25,6.25l0.02,130.17zm0,-142.67l6.24,6.25l6.25,0l0,-162.65l-6.26,0l-6.25,6.24l0.02,150.16zm0,-162.66l6.24,6.25l6.25,0l0,-162.69l-6.26,0l-6.25,6.25l0.02,150.19zm0,-162.67l6.24,6.25l6.25,0l0,-319.2l-6.26,6.24l-6.25,6.25l0.02,300.46z" />
            <path id="svg_16" fill="none" stroke-width="2" stroke="#000"
                d="m1296.18305,1203.09566l0,-130.17m12.5,-6.25l0,148.92m-12.5,-155.17l0,-150.16m12.5,-6.25l0,162.65m-12.5,-168.91l0,-150.16m12.5,-6.25l0,162.68m-12.5,-168.94l0,-300.46m12.5,-12.5l0,319.23m-12.5,-6.25" />
            <use id="svg_17" x="-667.92566" y="-140.01695"
                transform="matrix(3.31459e-14 -1 1 3.31459e-14 1420.59 175.914)" xlink:href="#a" />
            <path id="svg_18" fill="#fff"
                d="m846.01305,735.09566l-6.25,6.25l6.24,6.25l68.57,0l0,-12.5l-68.56,0zm158.57,0l0,12.5l47.6,0l6.24,-6.25l0,-6.25l-53.84,0zm53.84,0l0,6.25l6.25,6.25l53.25,0l0,-12.5l-59.5,0zm150.84,0l0,12.5l86.9,0l6.26,-6.25l-6.25,-6.25l-86.91,0z" />
            <path id="svg_19" fill="none" stroke-width="2" stroke="#000"
                d="m846.01305,735.09566l68.57,0l0,12.5l-68.6,0m158.58,-12.5l53.84,0m-6.25,12.5l-47.6,0l0,-12.5m53.84,0l59.5,0l0,12.5l-53.25,0m144.58,-12.5l86.9,0m0,12.5l-86.9,0l0,-12.5" />
            <use id="svg_20" x="-140.0116" y="667.92678"
                transform="matrix(1 0.00000800835 -0.00000800835 1 1186.13 51.5678)" xlink:href="#b" />
            <path id="svg_21" fill="none" stroke-width="5" stroke="#000"
                d="m1302.42305,1216.88566l0,344l-1196,0l0,-344" />
            <path id="svg_22" fill="#fff"
                d="m116.68305,434.34566l-6.26,-6.25l-6.25,-6.25l0,284.82l12.5,0l0.01,-272.32zm0,362.32l-12.5,0l0,419l6.24,-6.26l6.25,-6.25l0.01,-406.49z" />
            <path id="svg_23" fill="none" stroke-width="2" stroke="#000"
                d="m116.68305,434.34566l0,272.32l-12.5,0l0,-284.82m12.5,374.82l0,406.5m-12.5,12.5l0,-419l12.5,0" />
            <use id="svg_24" x="-667.92566" y="-140.01695" transform="matrix(0 -1 1 0 285.091 175.798)"
                xlink:href="#a" />
            <path id="svg_25" fill="#fff"
                d="m1296.18305,434.62566l6.24,-6.24l6.25,-6.25l-468.92,-0.1l0,6.25l6.24,6.25l450.19,0.09zm-462.68,-0.1l6.26,-6.25l0,-6.25l-41.16,0l0,12.5l34.9,0zm-124.9,-0.04l0,-12.5l-186.96,-0.04l0,12.5l186.96,0.04zm-490.96,-0.12l0,-12.5l-113.47,-0.02l6.24,6.25l6.25,6.25l100.98,0.02z" />
            <path id="svg_26" fill="none" stroke-width="2" stroke="#000"
                d="m1296.18305,434.62566l-450.2,-0.1m-6.24,-12.5l468.9,0.1m-475.16,12.4l-34.9,0l0,-12.5l41.16,0m-131.16,12.46l-186.96,-0.04l0,-12.5l186.96,0.04l0,12.5zm-490.96,-0.12l-100.97,-0.02m-12.5,-12.5l113.46,0.02l0,12.5" />
            <use id="svg_27" x="0" y="0" transform="matrix(1 0.000241824 -0.000241824 1 677.114 462.881)"
                xlink:href="#c" />
            <path id="svg_28" fill="#fff" d="m388.18305,812.34566l0,12.5l305.77,0l0,-12.5l-305.77,0z" />
            <path id="svg_29" fill="none" stroke-width="2" stroke="#000"
                d="m388.18305,812.34566l305.77,0l0,12.5l-305.77,0l0,-12.5z" />
            <use id="svg_30" x="-140.01695" y="667.92566" transform="matrix(1 0 0 1 656.783 128.819)" xlink:href="#d" />
            <path id="svg_31" d="m226.74305,440.32566l280.04,0l0,27.98l-280.03,0l0,-28l-0.01,0.02z" />
            <path id="svg_32" fill="#bbb" stroke-width="2" stroke="#000"
                d="m220.51305,433.45566l94.64,0c0.88,0 1.77,0.65 1.77,1.5l0,12.78c0,0.84 -0.88,1.5 -1.77,1.5l-94.64,0c-0.9,0 -1.48,-0.66 -1.48,-1.5l0,-12.78c0,-0.84 0.6,-1.5 1.48,-1.5zm98.79,0l94.93,0c0.9,0 1.5,0.65 1.5,1.5l0,12.78c0,0.84 -0.6,1.5 -1.5,1.5l-94.93,0c-0.9,0 -1.5,-0.66 -1.5,-1.5l0,-12.78c0,-0.84 0.6,-1.5 1.5,-1.5zm99.08,0l94.64,0c0.9,0 1.5,0.65 1.5,1.5l0,12.78c0,0.84 -0.6,1.5 -1.5,1.5l-94.64,0c-0.88,0 -1.77,-0.66 -1.77,-1.5l0,-12.78c0,-0.84 0.88,-1.5 1.77,-1.5zm82.48,16.69l0,42.53c0,3.34 1.48,6.12 3.56,6.12l6.23,0c2.08,0 3.86,-2.78 3.86,-6.12l0,-42.53l-13.65,0zm-77.73,0l70.3,0c3.57,0 6.24,2.68 6.24,5.93l0,63.2c0,3.24 -2.68,5.93 -6.24,5.93l-70.3,0c-3.57,0 -6.53,-2.7 -6.53,-5.94l0,-63.2c0,-3.24 2.96,-5.92 6.52,-5.92l0.01,0zm-204.1,0l0,42.53c0,3.34 1.48,6.12 3.56,6.12l6.23,0c2.08,0 3.86,-2.78 3.86,-6.12l0,-42.53l-13.65,0zm21.05,0l70.32,0c3.56,0 6.52,2.68 6.52,5.93l0,63.2c0,3.24 -2.96,5.93 -6.52,5.93l-70.3,0c-3.57,0 -6.24,-2.7 -6.24,-5.94l0,-63.2c0,-3.24 2.67,-5.92 6.23,-5.92l-0.01,0zm83.37,0l86.63,0c2.97,0 5.63,2.4 5.63,5.28l0,64.5c0,2.87 -2.66,5.28 -5.63,5.28l-86.63,0c-2.97,0 -5.64,-2.4 -5.64,-5.3l0,-64.48c0,-2.88 2.68,-5.28 5.64,-5.28z" />
            <path id="svg_33" fill="#fff" stroke-width="2" stroke="#000"
                d="m181.43305,554.99566l0,120l-60,0l0,-120l60,0z" />
            <path id="svg_34" d="m600.43305,521.12566l0,167.74l-22.8,0l0,-167.74l22.8,0z" />
            <path id="svg_35" fill="#bbb" stroke-width="2" stroke="#000"
                d="m608.00305,516.97566l0,86.04c0,0.9 -0.6,1.6 -1.4,1.6l-12,0c-0.78,0 -1.4,-0.7 -1.4,-1.6l0,-86.05c0,-0.9 0.62,-1.44 1.4,-1.44l12,0c0.8,0 1.4,0.55 1.4,1.45zm0,90l0,86.05c0,0.9 -0.6,1.6 -1.4,1.6l-12,0c-0.78,0 -1.4,-0.7 -1.4,-1.6l0,-86.05c0,-0.9 0.62,-1.62 1.4,-1.62l12,0c0.8,0 1.4,0.72 1.4,1.62zm-15.66,-91.45l-39.94,0c-3.13,0 -5.74,1.45 -5.74,3.43l0,5.58c0,2 2.6,3.6 5.74,3.6l39.94,0l0,-12.6l0,-0.01zm0,166.5l-39.94,0c-3.13,0 -5.74,1.45 -5.74,3.43l0,5.58c0,2 2.6,3.43 5.74,3.43l39.94,0l0,-12.6l0,0.16zm0,-147.23l0,63.9c0,3.24 -2.53,5.94 -5.57,5.94l-59.35,0c-3.04,0 -5.56,-2.7 -5.56,-5.93l0,-63.9c0,-3.24 2.5,-5.94 5.55,-5.94l59.34,0c3.03,0 5.56,2.7 5.56,5.94l0.03,-0.01zm0,76.5l0,63.9c0,3.24 -2.53,5.94 -5.57,5.94l-59.35,0c-3.04,0 -5.56,-2.7 -5.56,-5.93l0,-63.9c0,-3.24 2.5,-5.94 5.55,-5.94l59.34,0c3.03,0 5.56,2.7 5.56,5.94l0.03,-0.01z" />
            <path id="svg_36" fill="#fff" stroke-width="2" stroke="#000"
                d="m520.03305,435.19566l90,0l0,76l-90,0l0,-76z" />
            <g id="svg_37" fill="none">
                <path id="svg_38" stroke-width="2" stroke="#000"
                    d="m708.60305,428.22566l63.65,-63.6m26.35,63.63c0,-24.85 -8.78,-46.06 -26.35,-63.64" />
                <path id="svg_39" d="m708.62305,338.22566l90,0.03l-0.02,90l-90,-0.02l0.02,-90.01z" />
            </g>
            <path id="svg_40" fill="#fff" stroke-width="2" stroke="#000"
                d="m552.91305,890.17566l103.17,0l0,7.2l-103.17,0l0,-7.2zm0,-64.22l103.17,0l0,63.72l-103.17,0l0,-63.72z" />
            <path id="svg_41" fill="#fff" stroke-width="2" stroke="#000"
                d="m558.84305,830.05566l40.87,0l0,28.3l-40.87,0l0,-28.3z" />
            <path id="svg_42" fill="none" stroke-width="2" stroke="#000"
                d="m558.84305,830.05566l40.87,28.3m0,-28.3l-40.87,28.3m20.39,-28.3l0,28.3m20.48,-14.19l-40.87,0" />
            <path id="svg_43" stroke-width="2" stroke="#000"
                d="m587.55305,844.16566c0,3.17 -3.75,5.76 -8.32,5.76c-4.58,0 -8.22,-2.6 -8.22,-5.76c0,-3.17 3.64,-5.7 8.22,-5.7c4.57,0 8.32,2.53 8.32,5.7z" />
            <path id="svg_44" fill="#fff" stroke-width="2" stroke="#000"
                d="m609.28305,830.05566l40.87,0l0,28.3l-40.87,0l0,-28.3z" />
            <path id="svg_45" fill="none" stroke-width="2" stroke="#000"
                d="m609.28305,830.05566l40.87,28.3m0,-28.3l-40.87,28.3m20.5,-28.3l0,28.3m20.37,-14.19l-40.87,0" />
            <path id="svg_46" stroke-width="2" stroke="#000"
                d="m637.98305,844.16566c0,3.17 -3.63,5.76 -8.2,5.76c-4.6,0 -8.33,-2.6 -8.33,-5.76c0,-3.17 3.74,-5.7 8.32,-5.7c4.57,0 8.2,2.53 8.2,5.7l0.01,0z" />
            <path id="svg_47" fill="#fff" stroke-width="2" stroke="#000"
                d="m562.18305,862.22566l33.37,0l0,23.2l-33.37,0l0,-23.2z" />
            <path id="svg_48" fill="none" stroke-width="2" stroke="#000"
                d="m562.18305,862.22566l33.37,23.2m0,-23.2l-33.38,23.2m16.64,-23.2l0,23.2m16.74,-11.6l-33.37,0" />
            <path id="svg_49" stroke-width="2" stroke="#000"
                d="m584.22305,873.82566c0,2.1 -2.4,3.75 -5.4,3.75c-2.92,0 -5.3,-1.66 -5.3,-3.74s2.38,-3.74 5.3,-3.74c3,0 5.4,1.66 5.4,3.75l0,-0.02z" />
            <path id="svg_50" fill="#fff" stroke-width="2" stroke="#000"
                d="m613.44305,862.22566l33.4,0l0,23.2l-33.4,0l0,-23.2z" />
            <path id="svg_51" fill="none" stroke-width="2" stroke="#000"
                d="m613.44305,862.22566l33.4,23.2m-0.01,-23.2l-33.4,23.2m16.75,-23.2l0,23.2m16.65,-11.6l-33.4,0" />
            <path id="svg_52" stroke-width="2" stroke="#000"
                d="m635.48305,873.82566c0,2.1 -2.38,3.75 -5.3,3.75c-3,0 -5.4,-1.66 -5.4,-3.74s2.4,-3.74 5.4,-3.74c2.92,0 5.3,1.66 5.3,3.75l0,-0.02z" />
            <path id="svg_53" fill="#fff" stroke-width="2" stroke="#000"
                d="m693.43305,1193.32566l-80,0l0,-60l80,0l0,60z" />
            <path id="svg_54" fill="#fff" stroke-width="2" stroke="#000"
                d="m682.88305,1181.80566l-58.9,0c-3.67,0 -6.55,-2.88 -6.55,-6.54l0,-31.38c0,-3.66 2.88,-6.54 6.56,-6.54l58.9,0c3.67,0 6.55,2.88 6.55,6.54l0,31.38c0,3.66 -2.88,6.54 -6.56,6.54z" />
            <path id="svg_55" fill="#fff" stroke-width="2" stroke="#000"
                d="m653.43305,1188.64566c-1.92,0 -3.52,-2.22 -3.52,-5.04l0,-8.82c0,-2.76 1.6,-5.04 3.52,-5.04s3.52,2.28 3.52,5.04l0,8.82c0,2.82 -1.6,5.04 -3.52,5.04zm9.52,-4.98l4,0.96l3.92,-0.96l-0.97,4.08l0.96,3.84l-4.1,-0.96l-3.83,0.96l0.96,-4.02l-0.96,-3.9l0.02,0zm-26.97,0l4.1,0.96l3.83,-0.96l-0.96,4.08l0.96,3.84l-4,-0.96l-3.92,0.96l0.97,-4.02l-0.96,-3.9l-0.02,0z" />
            <path id="svg_56"
                d="m650.55305,1163.38566c0,-1.56 1.28,-2.88 2.88,-2.88c1.6,0 2.88,1.32 2.88,2.88c0,1.56 -1.28,2.82 -2.88,2.82c-1.6,0 -2.88,-1.26 -2.88,-2.82z" />
            <g id="svg_57" stroke-width="2" stroke="#000">
                <path id="svg_58" fill="#fff" d="m774.68305,925.39566l0,100.2l-6.9,0l0,-100.2l6.9,0z" />
                <path id="svg_59" fill="none"
                    d="m768.26305,1025.59566s-6.2,-0.2 -6.4,-1.92c-0.3,-2.22 -0.15,-8.5 -0.15,-8.5" />
                <path id="svg_60" fill="#fff" d="m830.16305,925.39566l0,100.2l-55.48,0l0,-100.2l55.48,0z" />
            </g>
            <g id="svg_61" stroke-width="2" stroke="#000">
                <path id="svg_62" fill="#fff" d="m521.64305,435.69566l-304,-0.07l0,-15l304,0.07l0,15z" />
                <path id="svg_63" d="m521.64305,430.69566l0,-5l-304,-0.07l0,5l304,0.07z" />
            </g>
            <path id="svg_64" fill="#fff"
                d="m116.68305,1203.15566l-6.26,6.25l-6.25,6.25l419.73,-0.02l0,-12.5l-407.22,0.02zm513.23,-0.03l0,12.5l209.85,0l0,-6.26l-6.25,-6.25l-203.6,0.01zm216.1,0l-6.26,6.24l0,6.25l218.67,-0.02l0,-6.25l-6.25,-6.25l-206.16,0.03zm218.66,-0.02l-6.26,6.25l0,6.25l250.25,0l-6.26,-6.26l-6.25,-6.25l-231.48,0.01z" />
            <path id="svg_65" fill="none" stroke-width="2" stroke="#000"
                d="m116.68305,1203.15566l407.23,-0.02l0,12.5l-419.74,0.03m525.73,-12.53l203.6,0m6.25,12.5l-209.84,0l0,-12.5m216.1,0l206.16,-0.02m6.24,12.5l-218.65,0m224.91,-12.5l231.5,0m12.5,12.5l-250.26,0m6.25,-12.5" />
            <use id="svg_66" x="-140.04996" y="667.91874"
                transform="matrix(1 -0.0000494223 0.0000494223 1 817.14 519.601)" xlink:href="#c" />
            <g id="svg_67" stroke-width="2" stroke="#000">
                <path id="svg_68" fill="#fff" d="m523.91305,1201.88566l106,0l0,15l-106,0l0,-15z" />
                <path id="svg_69" d="m523.91305,1206.88566l0,5l106,0l0,-5l-106,0z" />
            </g>
            <g id="svg_70" fill="none">
                <path id="svg_71" stroke-width="2" stroke="#000"
                    d="m914.58305,741.34566l0,-90m90,90c0,-49.7 -40.3,-90 -90,-90" />
                <path id="svg_72" d="m914.58305,651.34566l90,0l0,90l-90,0l0,-90z" />
            </g>
            <g id="svg_73" stroke-width="2" stroke="#000">
                <path id="svg_74" fill="#555"
                    d="m1286.18305,491.04566l0,179.64l-9.6,0l0,-179.64l9.6,0zm-229.92,0l0,179.64l-9.6,0l0,-179.64l9.6,0zm220.08,1.26l0,177.12l-219.84,0l0,-177.12l219.84,0z" />
                <path id="svg_75" fill="#fff"
                    d="m1271.06305,508.86566l0,59.22c0,3.42 -2.88,6.3 -6.24,6.3l-26.64,0c-3.6,0 -6.24,-2.88 -6.24,-6.3l0,-59.22c0,-3.42 2.64,-6.3 6.24,-6.3l26.64,0c3.36,0 6.24,2.88 6.24,6.3zm0,84.78l0,59.22c0,3.42 -2.88,6.3 -6.24,6.3l-26.64,0c-3.6,0 -6.24,-2.88 -6.24,-6.3l0,-59.22c0,-3.42 2.64,-6.3 6.24,-6.3l26.64,0c3.36,0 6.24,2.88 6.24,6.3zm-45.6,-13.68l0,0.18l-30,-39.6l0,128.88l30,0l0,-89.46z" />
                <path id="svg_76" fill="#fff" d="m1195.70305,492.30566l-23.52,17.82l53.28,70.38l-29.76,-88.2z" />
            </g>
            <g id="svg_77" fill="#ddd" stroke-width="2" stroke="#000">
                <path id="svg_78"
                    d="m866.44305,591.05566l0,-65.65c0,-5.42 3.17,-9.72 7.1,-9.72l11.76,0c3.93,0 7.1,4.3 7.1,9.72l0,65.65c0,5.4 -3.17,9.72 -7.1,9.72l-11.76,0c-3.93,0 -7.1,-4.3 -7.1,-9.72z" />
                <path id="svg_79"
                    d="m885.30305,623.87566l0,-131.3l7.1,-13.06l0,157.41l-7.1,-13.05zm-4.7,-30.91l0,-69.47l4.48,0l0,69.47l-4.48,0zm-9.98,-34.74c0,2.55 1.56,4.78 3.47,4.78c0.7,0 1.35,-0.3 1.9,-0.8l4.37,0l0,-7.96l-4.38,0c-0.55,-0.48 -1.2,-0.8 -1.9,-0.8c-1.9,0 -3.46,2.23 -3.46,4.78z" />
            </g>
            <path id="svg_80" fill="#fff"
                d="m1064.68305,747.59566l-6.26,-6.25l-6.25,6.25l0,110.17l6.24,6.25l6.25,0l0.02,-116.42zm0,116.42l-6.26,0l-6.25,6.24l0,332.84l6.24,6.25l6.25,-6.25l0.02,-339.08z" />
            <path id="svg_81" fill="none" stroke-width="2" stroke="#000"
                d="m1064.68305,747.59566l0,116.43m-12.5,-6.26l0,-110.17m12.5,116.42l0,339.08m-12.5,0l0,-332.83m12.5,-6.25" />
            <use id="svg_82" x="-667.92591" y="-140.01575"
                transform="matrix(0.00000180463 -1 1 0.00000180463 1233.09 332.4)" xlink:href="#e" />
            <g id="svg_83" fill="#fff" stroke-width="2" stroke="#000">
                <path id="svg_84"
                    d="m1243.78305,1026.74566c0,-10.2 5.95,-18.4 13.3,-18.4c7.33,0 13.3,8.2 13.3,18.4c0,10.15 -5.97,18.4 -13.3,18.4c-7.35,0 -13.3,-8.25 -13.3,-18.4z" />
                <path id="svg_85"
                    d="m1240.53305,1015.39566c0,-10.7 7.4,-19.4 16.56,-19.4c9.13,0 16.53,8.7 16.53,19.4c0,10.75 -7.4,19.45 -16.52,19.45c-9.15,0 -16.55,-8.7 -16.55,-19.45l-0.02,0z" />
                <path id="svg_86"
                    d="m1276.18305,1045.94566l-38.17,0c-0.52,0 -0.92,-0.7 -0.92,-1.6l0,-10.3c0,-0.9 0.4,-1.6 0.93,-1.6l38.16,0c0.47,0 0.87,0.7 0.87,1.6l0,10.3c0,0.9 -0.4,1.6 -0.88,1.6l0.01,0zm-10.13,-13.6l-17.96,0c-0.47,0 -0.87,-0.55 -0.87,-1.3c0,-0.7 0.4,-1.3 0.88,-1.3l17.97,0c0.52,0 0.92,0.6 0.92,1.3c0,0.75 -0.4,1.3 -0.93,1.3l-0.01,0z" />
            </g>
            <path id="svg_87" fill="#fff"
                d="m1226.00305,910.25566l-6.25,-6.25l-6.25,-6.25l0,27.37l12.5,0l0,-14.87zm0,67.54l-12.5,0l0,95.13l6.25,-6.25l6.25,-6.25l0,-82.63z" />
            <path id="svg_88" fill="none" stroke-width="2" stroke="#000"
                d="m1226.00305,910.25566l0,14.87l-12.5,0l0,-27.37m12.5,80.04l0,82.63m-12.5,12.5l0,-95.13l12.5,0" />
            <use id="svg_89" x="-667.92566" y="-140.01695"
                transform="matrix(8.84905e-9 -1 1 8.84905e-9 1394.42 342.394)" xlink:href="#f" />
            <path id="svg_90" fill="#fff"
                d="m1226.01305,1060.42566l-6.25,6.25l-6.26,6.25l82.67,0l6.24,-6.25l-6.25,-6.25l-70.15,0z" />
            <path id="svg_91" fill="none" stroke-width="2" stroke="#000"
                d="m1226.01305,1060.42566l70.16,0m0,12.5l-82.68,0m12.5,-12.5" />
            <use id="svg_92" x="0" y="0" transform="matrix(1 0.00000262898 -0.00000262898 1 1232.99 1044.83)"
                xlink:href="#g" />
            <g id="svg_93" fill="none">
                <path id="svg_94" stroke-width="2" stroke="#000"
                    d="m1219.75305,977.79566l-52.66,0m52.67,-52.67c-29.08,0 -52.66,23.58 -52.66,52.67" />
                <path id="svg_95" d="m1167.08305,977.79566l0,-52.67l52.67,0l0,52.67l-52.67,0z" />
            </g>
            <path id="svg_96" fill="#fff" stroke-width="2" stroke="#000"
                d="m1079.75305,1067.32566l0,-144l49.34,0l0,144l-49.34,0z" />
            <path id="svg_97" fill="#fff" stroke-width="2" stroke="#000"
                d="m1107.38305,1005.12566c9.67,0 17.46,11.73 17.46,26.2c0,14.48 -7.8,26.2 -17.46,26.2c-9.62,0 -17.4,-11.72 -17.4,-26.2c0,-14.47 7.78,-26.2 17.4,-26.2z" />
            <path id="svg_98" fill="#fff" stroke-width="2" stroke="#000"
                d="m1085.48305,1031.32566c0,-1.58 1.08,-2.88 2.4,-2.88l10.28,0c1.33,0 2.4,1.3 2.4,2.88c0,1.6 -1.07,2.88 -2.4,2.88l-10.27,0c-1.32,0 -2.4,-1.3 -2.4,-2.88l-0.01,0zm4.58,8.5l-0.83,3.17l0.83,3.17l-2.7,-0.94l-2.72,0.94l0.8,-3.17l-0.8,-3.17l2.7,0.94l2.72,-0.94zm0,-23.33l-0.83,3.17l0.83,3.17l-2.7,-0.93l-2.72,0.94l0.8,-3.16l-0.8,-3.17l2.7,0.94l2.72,-0.93l0,-0.03z" />
            <path id="svg_99"
                d="m1107.38305,1028.59566c1.28,0 2.32,1.22 2.32,2.73c0,1.52 -1.04,2.74 -2.32,2.74c-1.28,0 -2.32,-1.22 -2.32,-2.74c0,-1.5 1.04,-2.73 2.32,-2.73z" />
            <path id="svg_100" fill="#fff" stroke-width="2" stroke="#000"
                d="m1107.38305,933.12566c9.67,0 17.46,11.73 17.46,26.2c0,14.48 -7.8,26.2 -17.46,26.2c-9.62,0 -17.4,-11.72 -17.4,-26.2c0,-14.47 7.78,-26.2 17.4,-26.2z" />
            <path id="svg_101" fill="#fff" stroke-width="2" stroke="#000"
                d="m1085.48305,959.32566c0,-1.58 1.08,-2.88 2.4,-2.88l10.28,0c1.33,0 2.4,1.3 2.4,2.88c0,1.6 -1.07,2.88 -2.4,2.88l-10.27,0c-1.32,0 -2.4,-1.3 -2.4,-2.88l-0.01,0zm4.58,8.5l-0.83,3.17l0.83,3.17l-2.7,-0.94l-2.72,0.94l0.8,-3.17l-0.8,-3.17l2.7,0.94l2.72,-0.94zm0,-23.33l-0.83,3.17l0.83,3.17l-2.7,-0.93l-2.72,0.94l0.8,-3.16l-0.8,-3.17l2.7,0.94l2.72,-0.93l0,-0.03z" />
            <path id="svg_102"
                d="m1107.38305,956.59566c1.28,0 2.32,1.22 2.32,2.73c0,1.52 -1.04,2.74 -2.32,2.74c-1.28,0 -2.32,-1.22 -2.32,-2.74c0,-1.5 1.04,-2.73 2.32,-2.73z" />
            <path id="svg_103" fill="#fff" stroke-width="2" stroke="#000"
                d="m1235.76305,674.86566l52.66,0l0,50.66l-52.66,0l0,-50.66zm-4,-237.34l52.66,0l0,50.67l-52.66,0l0,-50.67z" />
            <g id="svg_104">
                <path id="svg_105" fill="#fff"
                    d="m1213.51305,897.75566l6.25,6.25l6.24,6.25l70.17,0l6.24,-6.24l-6.25,-6.26l-82.65,0z" />
                <path id="svg_106" fill="none" stroke-width="2" stroke="#000"
                    d="m1213.51305,897.75566l82.66,0m0,12.5l-70.19,0m-12.5,-12.5" />
            </g>
            <g id="svg_107">
                <use id="svg_108" x="0" y="0" transform="matrix(1 0.00000666081 -0.00000666081 1 1232.99 882.161)"
                    xlink:href="#h" />
            </g>
            <g id="svg_109" fill="#fff" stroke-width="2" stroke="#000">
                <path id="svg_110"
                    d="m1062.42305,1070.92566l0,-140l5,0l0,140l-5,0zm12.5,-17.5c4.14,0 7.5,3.36 7.5,7.5c0,4.15 -3.36,7.5 -7.5,7.5c-4.14,0 -7.5,-3.35 -7.5,-7.5c0,-4.14 3.36,-7.5 7.5,-7.5zm0,-20c4.14,0 7.5,3.36 7.5,7.5c0,4.15 -3.36,7.5 -7.5,7.5c-4.14,0 -7.5,-3.35 -7.5,-7.5c0,-4.14 3.36,-7.5 7.5,-7.5zm0,-20c4.14,0 7.5,3.36 7.5,7.5c0,4.15 -3.36,7.5 -7.5,7.5c-4.14,0 -7.5,-3.35 -7.5,-7.5c0,-4.14 3.36,-7.5 7.5,-7.5zm0,-20c4.14,0 7.5,3.36 7.5,7.5c0,4.15 -3.36,7.5 -7.5,7.5c-4.14,0 -7.5,-3.35 -7.5,-7.5c0,-4.14 3.36,-7.5 7.5,-7.5zm0,-20c4.14,0 7.5,3.36 7.5,7.5c0,4.15 -3.36,7.5 -7.5,7.5c-4.14,0 -7.5,-3.35 -7.5,-7.5c0,-4.14 3.36,-7.5 7.5,-7.5zm0,-20c4.14,0 7.5,3.36 7.5,7.5c0,4.15 -3.36,7.5 -7.5,7.5c-4.14,0 -7.5,-3.35 -7.5,-7.5c0,-4.14 3.36,-7.5 7.5,-7.5zm0,-20c4.14,0 7.5,3.36 7.5,7.5c0,4.15 -3.36,7.5 -7.5,7.5c-4.14,0 -7.5,-3.35 -7.5,-7.5c0,-4.14 3.36,-7.5 7.5,-7.5z" />
            </g>
            <g id="svg_111" fill="#fff" stroke-width="2" stroke="#000">
                <path id="svg_112"
                    d="m1297.73305,994.62566l-1.02,0l0,-4.02l1.02,0l0,4.02zm0,-15.92l-1.02,0l0,-4.02l1.02,0l0,4.02zm-6.72,12.58l-13.24,0l0,-13.24l13.23,0l0,13.24l0.01,0zm5.64,2.6l-12.3,0l0,-2.56l12.3,0l0,2.56zm0,-15.88l-12.3,0l0,-2.56l12.3,0l0,2.56z" />
            </g>
            <g id="svg_113">
                <path id="svg_114" fill="#fff" stroke-width="2" stroke="#000"
                    d="m1288.42305,1114.37566l0,76l-161.34,0l0,-76l161.34,0z" />
                <path id="svg_115" fill="#fff" stroke-width="2" stroke="#000"
                    d="m1207.75305,1180.57566c-39.84,0 -72.1,-12.77 -72.1,-28.58c0,-15.8 32.26,-28.57 72.1,-28.57c39.85,0 72.12,12.76 72.12,28.57c0,15.8 -32.28,28.58 -72.13,28.58l0.01,0z" />
                <path id="svg_116" fill="#fff" stroke-width="2" stroke="#000"
                    d="m1286.00305,1151.99566c0,1.67 -1.93,3.04 -4.2,3.04l-11.93,0c-2.43,0 -4.37,-1.36 -4.37,-3.03c0,-1.67 1.94,-3.04 4.36,-3.04l11.93,0c2.26,0 4.2,1.37 4.2,3.04l0.01,-0.01zm-9.68,-7.37l2.1,-3.27l-2.26,-3.2l4.68,1.38l4.52,-1.6l-1.94,3.28l2.1,3.27l-4.52,-1.45l-4.68,1.6l0,-0.01zm0,21.43l2.1,-3.27l-2.26,-3.26l4.68,1.44l4.52,-1.6l-1.94,3.27l2.1,3.2l-4.52,-1.36l-4.68,1.6l0,-0.02z" />
                <path id="svg_117"
                    d="m1257.93305,1154.35566c-1.94,0 -3.4,-1.07 -3.4,-2.36c0,-1.3 1.46,-2.35 3.4,-2.35c1.77,0 3.4,1.06 3.4,2.35c0,1.3 -1.63,2.36 -3.4,2.36z" />
            </g>
            <g id="svg_118">
                <path id="svg_119" fill="#fff"
                    d="m846.00305,857.76566l-6.24,6.25l6.25,6.24l111.73,0l0,-12.5l-111.74,0.01zm201.74,0l0,12.5l4.43,0l6.24,-6.25l-6.25,-6.26l-4.42,0.01z" />
                <path id="svg_120" fill="none" stroke-width="2" stroke="#000"
                    d="m846.00305,857.76566l111.74,0l0,12.5l-111.73,0m201.73,-12.5l4.43,0m0,12.5l-4.44,0l0,-12.5" />
            </g>
            <g id="svg_121">
                <use id="svg_122" x="-140.02261" y="667.92447"
                    transform="matrix(1 -0.00000847499 0.00000847499 1 1064.13 174.237)" xlink:href="#i" />
            </g>
            <g id="svg_123" fill="none">
                <path id="svg_124" stroke-width="2" stroke="#000"
                    d="m1047.74305,864.02566l0,90m-90,-90c0,49.7 40.3,90 90,90" />
                <path id="svg_125" d="m1047.74305,954.02566l-90,0l0,-90l90,0l0,90z" />
            </g>
            <path id="svg_126" fill="#ccc" stroke-width="2" stroke="#000"
                d="m849.03305,874.29566l69.44,0l0,69.44l-69.45,0l0,-69.43l0.01,-0.01z" />
            <path id="svg_127" stroke-width="2" stroke="#000"
                d="m867.16305,895.92566l3.58,0l5.52,22.12l5.47,-22.12l3.98,0l5.54,22.12l5.53,-22.12l3.57,0l-6.58,26.18l-4.5,0l-5.52,-22.75l-5.6,22.75l-4.4,0l-6.6,-26.18" />
            <path id="svg_128" fill="#ccc" stroke-width="2" stroke="#000"
                d="m849.03305,946.19566l69.44,0l0,69.44l-69.45,0l0,-69.43l0.01,-0.01z" />
            <path id="svg_129" stroke-width="2" stroke="#000"
                d="m876.28305,970.69566l0,20.44l4.25,0c3.64,0 6.3,-0.83 8,-2.44c1.66,-1.68 2.5,-4.27 2.5,-7.77c0,-3.58 -0.84,-6.1 -2.5,-7.78c-1.7,-1.6 -4.36,-2.45 -8,-2.45l-4.26,0m-3.58,-2.87l7.35,0c5.03,0 8.8,1.05 11.2,3.15c2.38,2.1 3.57,5.4 3.57,9.94c0,4.47 -1.26,7.83 -3.64,9.93c-2.38,2.1 -6.1,3.15 -11.13,3.15l-7.36,0l0,-26.17" />
            <g id="svg_130">
                <path id="svg_131" fill="#fff" stroke-width="2" stroke="#000"
                    d="m884.81305,1023.77566c19,0 34.4,19.26 34.4,42.9c0,23.73 -15.4,43 -34.4,43c-18.9,0 -34.32,-19.27 -34.32,-43c0,-23.64 15.42,-42.9 34.33,-42.9l-0.01,0z" />
                <path id="svg_132" fill="#fff" stroke-width="2" stroke="#000"
                    d="m889.01305,1035.38566c13.48,0 24.35,14 24.35,31.3c0,17.27 -10.87,31.3 -24.35,31.3c-13.4,0 -24.28,-14.03 -24.28,-31.3c0,-17.3 10.87,-31.3 24.28,-31.3z" />
                <path id="svg_133" fill="#fff" stroke-width="2" stroke="#000"
                    d="m858.48305,1066.67566c0,-1.9 1.5,-3.44 3.36,-3.44l14.3,0c1.87,0 3.38,1.56 3.38,3.45c0,1.9 -1.5,3.44 -3.37,3.44l-14.3,0c-1.87,0 -3.38,-1.56 -3.38,-3.45l0.01,0zm6.4,10.15l-1.18,3.78l1.17,3.78l-3.8,-1.1l-3.78,1.1l1.1,-3.78l-1.1,-3.78l3.78,1.12l3.8,-1.12l0.01,0zm0,-27.86l-1.18,3.78l1.17,3.8l-3.8,-1.13l-3.78,1.1l1.1,-3.78l-1.1,-3.78l3.78,1.12l3.8,-1.12l0.01,0.01z" />
                <path id="svg_134"
                    d="m889.01305,1063.42566c1.8,0 3.23,1.45 3.23,3.25s-1.44,3.27 -3.23,3.27c-1.8,0 -3.23,-1.46 -3.23,-3.27c0,-1.8 1.44,-3.26 3.23,-3.26l0,0.01z" />
            </g>
            <g id="svg_135">
                <path id="svg_136" fill="#fff"
                    d="m677.60305,14.40566l-6.25,-6.24l-6.25,-6.24l0,418.7l12.5,0l0,-406.22z" />
                <path id="svg_137" fill="none" stroke-width="2" stroke="#000"
                    d="m677.60305,14.40566l0,406.2l-12.5,0l0,-418.68m12.5,12.48" />
            </g>
            <g id="svg_138">
                <use id="svg_139" x="-667.92566" y="-140.01695" transform="matrix(0 -1 1 0 846.019 -431.676)"
                    xlink:href="#j" />
            </g>
            <g id="svg_140">
                <path id="svg_141" fill="#fff"
                    d="m1295.74305,13.52566l6.24,-6.27l6.24,-6.26l-643.12,0.93l6.25,6.24l6.25,6.24l618.14,-0.88z" />
                <path id="svg_142" fill="none" stroke-width="2" stroke="#000"
                    d="m1295.74305,13.52566l-618.14,0.88m-12.5,-12.48l643.12,-0.93m-12.48,12.52" />
            </g>
            <g id="svg_143">
                <use id="svg_144" x="-140.98104" y="667.72285"
                    transform="matrix(0.999999 -0.00144361 0.00144361 0.999999 1101.76 -625.525)" xlink:href="#k" />
            </g>
            <g id="svg_145" fill="none">
                <path id="svg_146" stroke-width="2" stroke="#000"
                    d="m110.42305,796.66566l-63.64,-63.64m63.64,-26.36c-24.85,0 -46.07,8.8 -63.64,26.36" />
                <path id="svg_147" d="m20.42305,796.66566l0,-90l90,0l0,90l-90,0z" />
            </g>
            <path id="svg_148" stroke-width="15.9" stroke-opacity="0" stroke="#000"
                d="m931.86305,216.82566c-19.95,0 -35.98,16.23 -35.98,36.4c0,20 16.03,36.25 35.98,36.25c20.3,0 36.33,-16.24 36.33,-36.24c0,-20.17 -16.02,-36.4 -36.32,-36.4l-0.01,-0.01zm0,47.35c-5.7,0 -10.7,-4.96 -10.7,-10.94c0,-6.15 5,-10.94 10.7,-10.94c6.05,0 11.04,4.8 11.04,10.95c0,6 -5,10.95 -11.04,10.95l0,-0.02z" />
            <path id="svg_149" stroke-width="15.9" stroke-opacity="0" stroke="#000"
                d="m1196.18305,223.48566l-5.7,-48.38c-1.43,-9.24 -9.62,-16.07 -18.88,-15.56l-12.82,0.85l-40.62,-36.4c-3.9,-3.6 -8.9,-5.48 -13.9,-5.48l-82.28,0c-18.16,0 -35.98,6.3 -50.58,17.77l-45.6,36.75l-61.63,15.4c-7.84,2.04 -13.54,9.05 -13.54,17.26l0,17.78c-2.5,0 -4.63,2.05 -4.63,4.62l0,23.6c0,3.24 2.85,5.97 6.05,5.97l34.9,0c-0.34,-1.54 -0.7,-2.9 -0.7,-4.44c0,-25.3 20.66,-45.64 45.6,-45.64c25.3,0 45.95,20.34 45.95,45.65c0,1.55 -0.36,2.9 -0.7,4.45l96.17,0c0,-1.54 -0.36,-2.9 -0.36,-4.44c0,-25.3 20.3,-45.64 45.6,-45.64s45.6,20.34 45.6,45.65c0,1.55 0,2.9 -0.36,4.45l32.42,0c3.2,0 6.06,-2.73 6.06,-5.98l0,-22.23c0,-3.25 -2.5,-5.98 -6.06,-5.98l0.01,-0.03zm-121.83,-59.33l-114.35,5.82l22.1,-17.6c11.74,-9.6 26.7,-14.9 41.66,-14.9l50.6,0l0,26.68l-0.01,0zm19.24,-1.02l0,-25.64l7.5,0c2.48,0 4.97,1.03 6.75,2.74l23.52,21.03l-37.76,1.88l-0.01,-0.01z" />
            <path id="svg_150" stroke-width="15.9" stroke-opacity="0" stroke="#000"
                d="m1118.52305,216.82566c-19.95,0 -36.33,16.23 -36.33,36.4c0,20 16.4,36.25 36.34,36.25c20.3,0 36.34,-16.24 36.34,-36.24c0,-20.17 -16.03,-36.4 -36.34,-36.4l-0.01,-0.01zm0,47.35c-6.06,0 -10.7,-4.96 -10.7,-10.94c0,-6.15 4.64,-10.94 10.7,-10.94s11.04,4.8 11.04,10.95c0,6 -4.98,10.95 -11.04,10.95l0,-0.02z" />
            <g id="svg_151">
                <path id="svg_152" fill="none" stroke-width="5" stroke="#000" d="m663.73305,371.42566l-0.5,-335.1" />
            </g>
            <g id="svg_153">
                <path id="svg_154" fill="#fff"
                    d="m1308.22305,0.99566l-6.24,6.26l-6.24,6.26l0.65,407.97l12.5,-0.02l-0.67,-420.47z" />
                <path id="svg_155" fill="none" stroke-width="2" stroke="#000"
                    d="m1308.22305,0.99566l0.67,420.48l-12.5,0.02l-0.64,-407.98m12.48,-12.53" />
            </g>
            <g id="svg_156">
                <use id="svg_157" x="667.70131" y="141.08305"
                    transform="matrix(0.00159639 0.999999 -0.999999 0.00159639 1464.14 -481.689)" xlink:href="#l" />
            </g>
            <g id="svg_158">
                <path id="svg_159" fill="none" stroke-width="5" stroke="#000" d="m677.23305,371.67566l-1.5,-335.36" />
            </g>
            <g id="svg_160" fill="none">
                <path id="svg_161" stroke-width="2" stroke="#000"
                    d="m467.76305,1209.38566l-63.64,63.64m-26.36,-63.63c0,24.85 8.8,46.06 26.36,63.63m-116.36,-63.63l63.64,63.64m26.36,-63.63c0,24.85 -8.8,46.06 -26.36,63.64" />
                <path id="svg_162" d="m467.76305,1299.38566l-180,0l0,-90l180,0l0,90z" />
            </g>
            <path id="svg_163" fill="#ddd" stroke="#000"
                d="m1159.62305,1465.72566c-13.8,-5.88 -28.34,-25.2 -42.87,-43.78c3.68,21.34 6.8,42.68 2.02,61.27c-9.58,-13.26 -15.46,-29.45 -18.04,-48.4c-7.73,19.87 -17.1,32 -26.3,45.08c2.57,-16.38 5.5,-32.76 15.08,-50.42c-17.48,11.22 -35.15,21.9 -52.63,26.68c5.16,-14.54 14.55,-29.44 27.6,-44.7c-15.8,3.48 -30.53,9.56 -49.85,6.43c12.88,-14.17 29.25,-19.88 45.08,-27.24c-16,-4.04 -32.38,-6.07 -47.1,-16.92c16.92,-5.33 32.75,-2.38 48.94,-1.46c-10.86,-6.08 -21.16,-11.05 -36.8,-29.63c19.32,3.32 35.88,8.84 47.3,18.04c-6.82,-21.52 -5.16,-37.16 -5.16,-53.9c9.76,9.93 19.5,18.4 29.08,39.55c1.3,-18.4 4.05,-35.52 14.72,-46.75c11.77,22.27 4.78,35.7 5.33,52.8c11.6,-14.9 23,-30.53 37,-38.8c-2.96,16.55 -13.08,33.1 -24.48,49.67c17.48,-8.28 35.5,-15.46 55.2,-17.85c-8.65,11.4 -18.4,22.82 -35.7,33.5c18.22,-1.67 32.93,4.6 48.2,9c-17.66,2.4 -36.24,9.02 -55.38,2.76c32.2,19.14 45.45,28.52 46.74,40.67c-13.97,3.13 -29.62,2.58 -48.57,-5.9c18.04,22.64 17.85,30.2 20.6,40.3l-0.01,0z" />
            <path id="svg_164" fill="#ddd" stroke="#000"
                d="m1128.88305,1448.62566c-9.37,-4.05 -17.28,-13.8 -23.72,-27.97c-9.2,18.2 -14.9,23 -21.35,30c-3.5,-14.18 -1.65,-25.4 -0.18,-36.63c-12.33,12.7 -24.1,11.6 -35.7,9.2c7.73,-6.8 14.9,-4.4 23.37,-28.15c-11.6,1.47 -22.26,-8.28 -33.12,-15.64c10.3,-6.06 21.35,-10.66 36.07,-6.8c-18.4,-12.14 -14,-22.45 -15.28,-33.3c8.27,15.64 19.13,20.6 31.83,18.03c0.55,-16.38 4.23,-27.4 9.75,-35.33c-2.4,13.62 3.68,24.48 12.88,34.4c13.06,2.77 21.16,-10.48 30.17,-20.97c-2.76,10.86 -5.15,21.53 -12.33,34.6c11.78,8.64 24.3,5.15 36.62,3.3c-4.6,4.6 -1.1,6.63 -31.65,18.6c11.96,6.8 21.16,15.08 25.95,26.12c-12.88,-9.2 -24.84,-9.2 -36.25,-6.07c2.94,12.5 -1.1,24.84 2.94,36.62l0,-0.01z" />
            <path id="svg_165" fill="#ddd" stroke="#000"
                d="m1159.81305,1449.17566c-13.8,-6.08 -49.5,-34.23 -57.04,-50.05c-41.78,14.72 -72.5,5.52 -82.45,1.1c14.9,-5.33 39.93,-8.83 73.6,-24.47c4.6,-31.83 27.05,-48.94 35.5,-59.25c5.17,14.72 5.72,38.64 -7.9,65.7c11.4,10.85 37.17,49.5 38.28,66.97l0.01,0z" />
            <defs transform="translate(-140.017 667.926)">
                <path id="m" d="m64,0c3,-98 48,-159 88,-221l-134,0l0,-27l164,0l0,26c-39,65 -84,121 -85,222l-33,0" />
                <path id="n" d="m33,0l0,-38l34,0l0,38l-34,0" />
                <path id="o"
                    d="m134,-131c28,9 52,24 51,62c-1,50 -34,73 -85,73s-83,-23 -84,-73c0,-36 21,-54 49,-61c-75,-25 -45,-126 34,-121c46,3 78,18 79,63c0,33 -17,51 -44,57zm-34,-11c31,1 46,-15 46,-44c0,-28 -17,-43 -47,-42c-29,0 -46,13 -45,42c1,28 16,44 46,44zm1,122c35,0 51,-18 51,-52c0,-30 -18,-46 -53,-46c-33,0 -51,17 -51,47c0,34 19,51 53,51" />
                <path id="p" d="m27,0l0,-27l64,0l0,-190l-56,39l0,-29l58,-41l29,0l0,221l61,0l0,27l-156,0" />
                <path id="q"
                    d="m210,-169c-67,3 -38,105 -44,169l-31,0l0,-121c0,-29 -5,-50 -35,-48c-66,4 -38,104 -44,169l-31,0l-1,-190l30,0c1,10 -1,24 2,32c10,-44 99,-50 107,0c11,-21 27,-35 58,-36c85,-2 47,119 55,194l-31,0l0,-121c0,-29 -5,-49 -35,-48" />
                <g id="a">
                    <use id="svg_166" xlink:href="#m" transform="matrix(0.05,0,0,0.05,0,0)" />
                    <use id="svg_167" xlink:href="#n" transform="matrix(0.05,0,0,0.05,10,0)" />
                    <use id="svg_168" xlink:href="#o" transform="matrix(0.05,0,0,0.05,15,0)" />
                    <use id="svg_169" xlink:href="#p" transform="matrix(0.05,0,0,0.05,25,0)" />
                    <use id="svg_170" xlink:href="#q" transform="matrix(0.05,0,0,0.05,35,0)" />
                </g>
                <path id="r"
                    d="m155,-56l0,56l-30,0l0,-56l-117,0l0,-25l114,-167l33,0l0,167l35,0l0,25l-35,0zm-30,-156c-27,46 -58,90 -88,131l88,0l0,-131" />
                <path id="s"
                    d="m54,-142c48,-35 137,-8 131,61c11,99 -154,114 -171,26l32,-4c7,23 22,37 52,37c35,-1 51,-22 54,-58c4,-55 -73,-65 -99,-34l-31,0l8,-134l141,0l0,27l-112,0" />
                <g id="b">
                    <use id="svg_171" xlink:href="#r" transform="matrix(0.05,0,0,0.05,0,0)" />
                    <use id="svg_172" xlink:href="#n" transform="matrix(0.05,0,0,0.05,10,0)" />
                    <use id="svg_173" xlink:href="#s" transform="matrix(0.05,0,0,0.05,15,0)" />
                    <use id="svg_174" xlink:href="#m" transform="matrix(0.05,0,0,0.05,25,0)" />
                    <use id="svg_175" xlink:href="#q" transform="matrix(0.05,0,0,0.05,35,0)" />
                </g>
                <path id="t"
                    d="m99,-251c64,0 84,50 84,122c0,92 -53,162 -136,121c-14,-7 -20,-23 -25,-40l30,-5c6,39 69,39 84,7c9,-19 16,-44 16,-74c-10,22 -31,35 -62,35c-49,0 -73,-33 -73,-83c0,-54 28,-83 82,-83zm-1,141c31,-1 51,-18 51,-49c0,-36 -14,-67 -51,-67c-34,0 -49,23 -49,58c0,34 15,58 49,58" />
                <g id="c">
                    <use id="svg_176" xlink:href="#p" transform="matrix(0.05,0,0,0.05,0,0)" />
                    <use id="svg_177" xlink:href="#p" transform="matrix(0.05,0,0,0.05,8.65,0)" />
                    <use id="svg_178" xlink:href="#n" transform="matrix(0.05,0,0,0.05,18.65,0)" />
                    <use id="svg_179" xlink:href="#t" transform="matrix(0.05,0,0,0.05,23.65,0)" />
                    <use id="svg_180" xlink:href="#o" transform="matrix(0.05,0,0,0.05,33.65,0)" />
                    <use id="svg_181" xlink:href="#q" transform="matrix(0.05,0,0,0.05,43.65,0)" />
                </g>
                <path id="u"
                    d="m126,-127c33,6 58,20 58,59c0,88 -139,92 -164,29c-3,-8 -5,-16 -6,-25l32,-3c6,27 21,44 54,44c32,0 52,-15 52,-46c0,-38 -36,-46 -79,-43l0,-28c39,1 72,-4 72,-42c0,-27 -17,-43 -46,-43c-28,0 -47,15 -49,41l-32,-3c6,-42 35,-63 81,-64c48,-1 79,21 79,65c0,36 -21,52 -52,59" />
                <g id="d">
                    <use id="svg_182" xlink:href="#u" transform="matrix(0.05,0,0,0.05,0,0)" />
                    <use id="svg_183" xlink:href="#n" transform="matrix(0.05,0,0,0.05,10,0)" />
                    <use id="svg_184" xlink:href="#p" transform="matrix(0.05,0,0,0.05,15,0)" />
                    <use id="svg_185" xlink:href="#p" transform="matrix(0.05,0,0,0.05,23.65,0)" />
                    <use id="svg_186" xlink:href="#q" transform="matrix(0.05,0,0,0.05,33.65,0)" />
                </g>
                <path id="v"
                    d="m110,-160c48,1 74,30 74,79c0,53 -28,85 -80,85c-65,0 -83,-55 -86,-122c-5,-90 50,-162 133,-122c14,7 22,21 27,39l-31,6c-5,-40 -67,-38 -82,-6c-9,19 -15,44 -15,74c11,-20 30,-34 60,-33zm-7,138c34,0 49,-23 49,-58s-16,-56 -50,-56c-29,0 -50,16 -49,49c1,36 15,65 50,65" />
                <g id="e">
                    <use id="svg_187" xlink:href="#r" transform="matrix(0.05,0,0,0.05,0,0)" />
                    <use id="svg_188" xlink:href="#n" transform="matrix(0.05,0,0,0.05,10,0)" />
                    <use id="svg_189" xlink:href="#v" transform="matrix(0.05,0,0,0.05,15,0)" />
                    <use id="svg_190" xlink:href="#u" transform="matrix(0.05,0,0,0.05,25,0)" />
                    <use id="svg_191" xlink:href="#q" transform="matrix(0.05,0,0,0.05,35,0)" />
                </g>
                <g id="f">
                    <use id="svg_192" xlink:href="#p" transform="matrix(0.05,0,0,0.05,0,0)" />
                    <use id="svg_193" xlink:href="#n" transform="matrix(0.05,0,0,0.05,10,0)" />
                    <use id="svg_194" xlink:href="#s" transform="matrix(0.05,0,0,0.05,15,0)" />
                    <use id="svg_195" xlink:href="#u" transform="matrix(0.05,0,0,0.05,25,0)" />
                    <use id="svg_196" xlink:href="#q" transform="matrix(0.05,0,0,0.05,35,0)" />
                </g>
                <path id="w"
                    d="m101,-251c68,0 85,55 85,127s-20,128 -86,128c-67,0 -86,-56 -86,-128c0,-73 17,-127 87,-127zm-1,229c47,0 54,-49 54,-102s-4,-102 -53,-102c-51,0 -55,48 -55,102c0,53 5,102 54,102" />
                <g id="g">
                    <use id="svg_197" xlink:href="#w" transform="matrix(0.05,0,0,0.05,0,0)" />
                    <use id="svg_198" xlink:href="#n" transform="matrix(0.05,0,0,0.05,10,0)" />
                    <use id="svg_199" xlink:href="#m" transform="matrix(0.05,0,0,0.05,15,0)" />
                    <use id="svg_200" xlink:href="#p" transform="matrix(0.05,0,0,0.05,25,0)" />
                    <use id="svg_201" xlink:href="#q" transform="matrix(0.05,0,0,0.05,35,0)" />
                </g>
                <g id="h">
                    <use id="svg_202" xlink:href="#w" transform="matrix(0.05,0,0,0.05,0,0)" />
                    <use id="svg_203" xlink:href="#n" transform="matrix(0.05,0,0,0.05,10,0)" />
                    <use id="svg_204" xlink:href="#o" transform="matrix(0.05,0,0,0.05,15,0)" />
                    <use id="svg_205" xlink:href="#r" transform="matrix(0.05,0,0,0.05,25,0)" />
                    <use id="svg_206" xlink:href="#q" transform="matrix(0.05,0,0,0.05,35,0)" />
                </g>
                <path id="x"
                    d="m101,-251c82,-7 93,87 43,132l-62,55c-11,11 -23,22 -29,37l129,0l0,27l-164,0c2,-99 128,-94 128,-182c0,-28 -16,-43 -45,-43s-46,15 -49,41l-32,-3c6,-41 34,-60 81,-64" />
                <g id="i">
                    <use id="svg_207" xlink:href="#x" transform="matrix(0.05,0,0,0.05,0,0)" />
                    <use id="svg_208" xlink:href="#n" transform="matrix(0.05,0,0,0.05,10,0)" />
                    <use id="svg_209" xlink:href="#w" transform="matrix(0.05,0,0,0.05,15,0)" />
                    <use id="svg_210" xlink:href="#t" transform="matrix(0.05,0,0,0.05,25,0)" />
                    <use id="svg_211" xlink:href="#q" transform="matrix(0.05,0,0,0.05,35,0)" />
                </g>
                <g id="j">
                    <use id="svg_212" xlink:href="#r" transform="matrix(0.05,0,0,0.05,0,0)" />
                    <use id="svg_213" xlink:href="#n" transform="matrix(0.05,0,0,0.05,10,0)" />
                    <use id="svg_214" xlink:href="#p" transform="matrix(0.05,0,0,0.05,15,0)" />
                    <use id="svg_215" xlink:href="#u" transform="matrix(0.05,0,0,0.05,25,0)" />
                    <use id="svg_216" xlink:href="#q" transform="matrix(0.05,0,0,0.05,35,0)" />
                </g>
                <g id="k">
                    <use id="svg_217" xlink:href="#v" transform="matrix(0.05,0,0,0.05,0,0)" />
                    <use id="svg_218" xlink:href="#n" transform="matrix(0.05,0,0,0.05,10,0)" />
                    <use id="svg_219" xlink:href="#x" transform="matrix(0.05,0,0,0.05,15,0)" />
                    <use id="svg_220" xlink:href="#o" transform="matrix(0.05,0,0,0.05,25,0)" />
                    <use id="svg_221" xlink:href="#q" transform="matrix(0.05,0,0,0.05,35,0)" />
                </g>
                <g id="l">
                    <use id="svg_222" xlink:href="#r" transform="matrix(0.05,0,0,0.05,0,0)" />
                    <use id="svg_223" xlink:href="#n" transform="matrix(0.05,0,0,0.05,10,0)" />
                    <use id="svg_224" xlink:href="#x" transform="matrix(0.05,0,0,0.05,15,0)" />
                    <use id="svg_225" xlink:href="#m" transform="matrix(0.05,0,0,0.05,25,0)" />
                    <use id="svg_226" xlink:href="#q" transform="matrix(0.05,0,0,0.05,35,0)" />
                </g>
            </defs>
        </g>
        <rect stroke-width="0" opacity="0" id="Bedroom" height="315.38462" width="464.61539" y="427.54073" x="835.81925"
            stroke="#000" fill="#fff" />
        <rect fill="#fff" x="1062.04999" y="744.31" width="238" height="464" id="Bathroom" stroke="#000" opacity="0" />
        <rect opacity="0" id="Indoorlivingareas" height="377" width="714" y="433.31" x="118.04999" stroke="#000"
            fill="#fff" />
        <rect fill="#fff" stroke="#000" x="108.04999" y="1213.31" width="1192" height="344" id="Outdoorareas"
            opacity="0" />
        <rect opacity="0" id="Laundry" height="334" width="208" y="870.31" x="844.04999" stroke="#000" fill="#fff" />
        <rect fill="#fff" stroke="#000" x="386.04999" y="811.31" width="448" height="393" id="Kitchen" opacity="0" />
        <rect opacity="0" id="Garage" height="408" width="619" y="13.31" x="677.04999" stroke="#000" fill="#fff" />
        <rect fill="#fff" stroke="#000" x="5.04999" y="3.31" width="658" height="416" id="Driveway" opacity="0" />
    </g>
</svg>