<svg xmlns="http://www.w3.org/2000/svg" xmlns:lucid="lucid" width="56.51" height="53.68"><g transform="translate(-893.2220209260265 -481.3333333333334)" lucid:page-tab-id="alGq~_oyX7.S"><path d="M921.48 535.02c27.18-19.54 28.14-30.98 28.25-34.52.17-5.05-.5-18.1-13.8-19.1-6.54-.5-12.3 3.3-14.45 9.5-2.15-6.24-8.03-10.05-14.58-9.5-13.1 1-13.85 14.05-13.68 19.1 0 3.54 1.08 14.98 28.26 34.52" stroke="#000" stroke-opacity="0" fill="url(#a)"/><path d="M949.73 500.5c.17-5.04-.5-18.1-13.8-19.1-6.54-.5-12.3 3.3-14.45 9.5-2.15-6.25-8.03-10.05-14.58-9.5-13.1 1-13.85 14.06-13.68 19.1 0 3.53.8 14.82 28.03 34.36" stroke="#000" stroke-opacity="0" fill-opacity="0"/><path d="M949.7 498.53h-13.28c-.2 0-.37.08-.47.22l-3.97 7c-.16.24-.53.3-.8.16l-.14-.16-5.75-11c-.12-.2-.27-.38-.48-.47-.53-.25-1.15-.02-1.36.48l-5.54 16.53c-.1.28-.42.4-.68.25-.16-.05-.2-.14-.26-.25l-4.7-11c-.1-.2-.27-.33-.48-.4-.52-.3-1.1-.1-1.36.4l-6.48 11.67c-.1.17-.2.25-.42.25h-6.1c.98 1.5 1.87 2.72 2.97 4.1h5.6c.2.02.36-.1.42-.3l4.02-7.43c.16-.25.47-.34.73-.2.1.06.16.1.2.2l5.55 12.9c.1.27.32.5.58.6.52.2 1.15-.08 1.3-.6l5.86-17.38c.1-.26.37-.37.63-.3.14.07.2.15.25.3l4.86 9.25c.1.2.27.3.43.42.47.25 1.1.06 1.36-.42l6.15-10.46c.1-.15.26-.26.42-.26h10.77" stroke="#000" stroke-opacity="0" fill="#fff"/><defs><linearGradient gradientUnits="userSpaceOnUse" id="a" x1="921.49" y1="535.02" x2="921.49" y2="481.32"><stop offset="0%" stop-color="#1988d9"/><stop offset="22%" stop-color="#218ddc"/><stop offset="56%" stop-color="#379ce5"/><stop offset="90%" stop-color="#54aef0"/></linearGradient></defs></g></svg>