<svg xmlns="http://www.w3.org/2000/svg" xmlns:lucid="lucid" width="56" height="56"><g lucid:page-tab-id="alGq~_oyX7.S" stroke="#000" stroke-opacity="0"><path d="M49.45 22.4v16.8h4.9V19.6l-4.9 2.8z" fill="#5c85de"/><path d="M54.35 19.6l-4.9 2.8v2.34l4.9-5.14z" fill="#3367d6"/><path d="M.94 19.6l26.8 14.7 21.7-11.9 4.92-2.8-26.6-14.46L.93 19.6z" fill="#5c85de"/><path d="M.94 19.6l26.82 14.7V5.15L.94 19.6z" fill="#85a4e6"/><path d="M10.75 29.85v9.55l17.02 9.32 16.8-9.32v-9.55l-16.8 9.32-17.02-9.32z" fill="#5c85de"/><path d="M10.75 39.4l17.03 9.32v-9.55l-17.03-9.32v9.55z" fill="#85a4e6"/><path d="M28 5.6L8.4 14.7v23.74l19.64 9.16 19.56-9.16V14.76z" stroke-width=".01" fill-opacity="0"/></g></svg>